<svg width="272" height="241" viewBox="0 0 272 241" fill="none" xmlns="http://www.w3.org/2000/svg">
<path d="M19.5332 67.6813L18.8052 202.945C18.8052 203.371 19.0306 203.78 19.4319 204.081C19.8331 204.382 20.3773 204.552 20.9447 204.552V204.552C21.498 204.552 22.0296 204.39 22.4264 204.1C22.8231 203.811 23.0538 203.416 23.0692 203.001L28.2098 67.871L19.5332 67.6813Z" fill="#E1E1E6" stroke="#263238" stroke-linecap="round" stroke-linejoin="round"/>
<path d="M8.32559 99.0941L7.69078 238.846C7.68899 239.058 7.73806 239.267 7.83517 239.463C7.93228 239.658 8.07548 239.836 8.25644 239.985C8.43741 240.134 8.65251 240.253 8.88929 240.333C9.12607 240.413 9.3798 240.454 9.63571 240.452V240.452C10.1378 240.452 10.6206 240.292 10.9831 240.006C11.3456 239.719 11.5597 239.327 11.5806 238.913L16.2404 99.2725L8.32559 99.0941Z" fill="#E1E1E6" stroke="#263238" stroke-linecap="round" stroke-linejoin="round"/>
<path d="M252.402 67.6813L253.065 202.945C253.067 203.155 253.018 203.364 252.922 203.559C252.825 203.754 252.683 203.931 252.503 204.08C252.324 204.23 252.11 204.348 251.874 204.429C251.639 204.51 251.386 204.552 251.131 204.552V204.552C250.626 204.552 250.14 204.39 249.777 204.101C249.413 203.812 249.2 203.417 249.183 203.001L244.516 67.871L252.402 67.6813Z" fill="#E1E1E6" stroke="#263238" stroke-linecap="round" stroke-linejoin="round"/>
<path d="M263.518 99.0941L264.18 238.846C264.182 239.058 264.132 239.267 264.035 239.463C263.938 239.658 263.795 239.836 263.614 239.985C263.433 240.134 263.218 240.253 262.981 240.333C262.744 240.413 262.491 240.454 262.235 240.452V240.452C261.734 240.452 261.253 240.292 260.892 240.005C260.532 239.718 260.321 239.326 260.303 238.913L255.63 99.2725L263.518 99.0941Z" fill="#E1E1E6" stroke="#263238" stroke-linecap="round" stroke-linejoin="round"/>
<path d="M270.889 93.5524L265.889 89.6438L254.334 67.9292C253.786 66.9413 252.926 66.1093 251.853 65.5304C250.781 64.9515 249.541 64.6496 248.279 64.6599H23.846C22.5813 64.6473 21.3386 64.9482 20.2636 65.5272C19.1887 66.1062 18.3261 66.9394 17.7769 67.9292L3.37487 94.9759L1 94.2159V100.405L1.11111 100.332C1.25258 101.158 1.73501 101.911 2.46843 102.45C3.20186 102.989 4.13616 103.279 5.09701 103.264H267.014C268.026 103.284 269.007 102.962 269.751 102.365C270.495 101.769 270.943 100.945 271 100.067L270.889 93.5524Z" fill="#5E5E61" stroke="#263238" stroke-linecap="round" stroke-linejoin="round"/>
<path d="M267.014 97.6058H5.09714C4.44853 97.6281 3.80399 97.5071 3.22396 97.2539C2.64394 97.0008 2.14743 96.6239 1.78098 96.1585C1.41453 95.6931 1.19014 95.1544 1.12887 94.5931C1.0676 94.0318 1.17144 93.4661 1.43066 92.9492L17.777 62.2713C18.3235 61.2797 19.1855 60.4448 20.261 59.8655C21.3366 59.2861 22.5807 58.9865 23.8462 59.002H248.279C249.542 58.9888 250.783 59.2895 251.856 59.8687C252.929 60.448 253.789 61.2816 254.334 62.2713L270.681 92.9492C270.94 93.4661 271.044 94.0318 270.983 94.5931C270.921 95.1544 270.697 95.6931 270.33 96.1585C269.964 96.6239 269.467 97.0008 268.887 97.2539C268.307 97.5071 267.663 97.6281 267.014 97.6058V97.6058Z" fill="#E1E1E6" stroke="#263238" stroke-linecap="round" stroke-linejoin="round"/>
<g style="mix-blend-mode:multiply" opacity="0.5">
<path d="M18.3602 77.0011C18.3602 77.0011 12.4299 80.5358 16.1381 81.8266C19.8462 83.1174 62.469 82.1523 67.6632 80.8615C72.8574 79.5706 78.7738 67.6638 78.7738 65.7336C78.7738 63.8034 71.3019 62.4161 68.5521 62.3075C65.8022 62.199 29.4707 64.1171 29.4707 64.1171L18.3602 77.0011Z" fill="#A8A8A8"/>
</g>
<g style="mix-blend-mode:multiply" opacity="0.5">
<path d="M230.377 83.1174C238.768 83.1174 245.571 80.6653 245.571 77.6405C245.571 74.6157 238.768 72.1636 230.377 72.1636C221.986 72.1636 215.183 74.6157 215.183 77.6405C215.183 80.6653 221.986 83.1174 230.377 83.1174Z" fill="#A8A8A8"/>
</g>
<g style="mix-blend-mode:multiply" opacity="0.5">
<path d="M133.646 89.8851C163.736 89.8851 188.129 85.9207 188.129 81.0304C188.129 76.1401 163.736 72.1757 133.646 72.1757C103.556 72.1757 79.1626 76.1401 79.1626 81.0304C79.1626 85.9207 103.556 89.8851 133.646 89.8851Z" fill="#A8A8A8"/>
</g>
<path d="M219.267 56.0948C219.267 56.0948 218.267 52.6325 214.947 53.7906C211.628 54.9487 211.962 62.5971 212.614 66.928C213.267 71.2588 217.767 69.2321 217.767 69.2321V66.6384C217.767 66.6384 216.114 67.7845 215.281 66.2041C214.448 64.6238 214.614 56.6738 215.447 56.8186C216.281 56.9634 217.933 59.4123 217.933 59.4123C217.933 59.4123 218.433 59.1348 219.267 56.0948Z" fill="#61DCFB" stroke="#263238" stroke-linecap="round" stroke-linejoin="round"/>
<path d="M216.878 56.6737V75.6378C216.878 77.8696 222.78 79.6791 230.071 79.6791C237.363 79.6791 243.251 77.8696 243.251 75.6378V56.6737H216.878Z" fill="#61DCFB" stroke="#263238" stroke-linecap="round" stroke-linejoin="round"/>
<path d="M243.251 56.6739C243.251 58.6041 237.349 60.1603 230.071 60.1603C222.794 60.1603 216.878 58.6041 216.878 56.6739C216.878 54.7437 222.78 53.1875 230.071 53.1875C237.363 53.1875 243.251 54.7558 243.251 56.6739Z" fill="#E1E1E6" stroke="#263238" stroke-linecap="round" stroke-linejoin="round"/>
<path d="M241.529 56.6737C241.529 58.3506 236.39 59.7017 230.071 59.7017C223.752 59.7017 218.6 58.3506 218.6 56.6737C218.6 54.9969 223.738 53.6458 230.071 53.6458C236.404 53.6458 241.529 54.9969 241.529 56.6737Z" fill="#E1E1E6" stroke="#263238" stroke-linecap="round" stroke-linejoin="round"/>
<path d="M221.225 58.604C226.998 60.0674 233.132 60.0674 238.904 58.604C233.132 57.1406 226.998 57.1406 221.225 58.604V58.604Z" fill="#263238" stroke="#263238" stroke-linecap="round" stroke-linejoin="round"/>
<path d="M16.7213 65.3355L16.888 71.8258L67.2326 72.2601V64.7565L16.7213 65.3355Z" fill="#E1E1E6" stroke="#263238" stroke-linecap="round" stroke-linejoin="round"/>
<path d="M67.2327 72.2602L74.5517 58.5559V54.5145L66.8994 66.0595L67.2327 72.2602Z" fill="#E1E1E6" stroke="#263238" stroke-linecap="round" stroke-linejoin="round"/>
<path d="M16.7213 71.2467L16.888 77.749L67.2326 78.1833V70.6797L16.7213 71.2467Z" fill="#E1E1E6" stroke="#263238" stroke-linecap="round" stroke-linejoin="round"/>
<path d="M67.2327 78.1834L74.5517 64.467V60.4257L66.8994 71.9706L67.2327 78.1834Z" fill="#E1E1E6" stroke="#263238" stroke-linecap="round" stroke-linejoin="round"/>
<path d="M36.1648 48.8807C36.1648 48.8807 37.3314 46.8661 35.6649 45.9975C33.9983 45.1289 32.1789 47.2039 31.179 47.8674C30.179 48.5309 9.24956 60.5704 8.58293 62.4523C7.9163 64.3343 8.58295 68.4842 13.0688 68.9426C17.5547 69.401 21.5406 66.7832 23.5405 66.3489C25.5404 65.9146 26.3181 65.7698 26.3181 65.7698L40.1091 49.6045L36.1648 48.8807Z" fill="#61DCFB" stroke="#263238" stroke-linecap="round" stroke-linejoin="round"/>
<path d="M13.0688 68.9546C17.5547 69.3889 21.5406 66.7952 23.5405 66.3609C25.5404 65.9267 26.3181 65.7819 26.3181 65.7819L26.8181 65.1908L13.8605 62.8987C13.156 62.3223 12.2503 61.9666 11.2867 61.8879C10.3232 61.8092 9.35705 62.0121 8.54128 62.4644C7.91631 64.3222 8.58296 68.5083 13.0688 68.9546Z" fill="#E1E1E6" stroke="#263238" stroke-linecap="round" stroke-linejoin="round"/>
<path d="M13.902 62.9228H52.7889C64.9272 62.9228 68.5798 62.3437 68.5798 62.3437L76.0516 48.9169C76.0516 48.9169 52.4417 50.2197 45.1504 49.7854C42.1375 49.71 39.1368 49.4195 36.1787 48.9169L13.902 62.9228Z" fill="#61DCFB" stroke="#263238" stroke-linecap="round" stroke-linejoin="round"/>
<path d="M13.902 62.9228L14.5687 65.5165C14.5687 65.5165 46.1365 65.6612 54.4416 65.6612C62.7468 65.6612 69.0659 65.9508 69.0659 65.9508L68.5659 62.3317L13.902 62.9228Z" fill="#E1E1E6" stroke="#263238" stroke-linecap="round" stroke-linejoin="round"/>
<path d="M69.0658 65.9147L76.0376 52.0535V48.8807L68.5658 62.3076L69.0658 65.9147Z" fill="#E1E1E6" stroke="#263238" stroke-linecap="round" stroke-linejoin="round"/>
<path d="M181.227 82.1282H86.0234C85.8125 82.1298 85.6033 82.0951 85.4079 82.0261C85.2125 81.9571 85.0348 81.8552 84.885 81.7262C84.7353 81.5972 84.6164 81.4437 84.5352 81.2746C84.4541 81.1055 84.4123 80.9241 84.4124 80.7409C84.4123 80.5577 84.4541 80.3763 84.5352 80.2072C84.6164 80.0381 84.7353 79.8846 84.885 79.7556C85.0348 79.6266 85.2125 79.5247 85.4079 79.4557C85.6033 79.3867 85.8125 79.352 86.0234 79.3536H181.227C181.437 79.352 181.646 79.3868 181.84 79.4559C182.035 79.5251 182.212 79.6272 182.36 79.7563C182.509 79.8855 182.627 80.039 182.706 80.2081C182.786 80.3771 182.826 80.5582 182.824 80.7409C182.826 80.9235 182.786 81.1047 182.706 81.2737C182.627 81.4428 182.509 81.5963 182.36 81.7255C182.212 81.8546 182.035 81.9567 181.84 82.0259C181.646 82.095 181.437 82.1298 181.227 82.1282V82.1282Z" fill="#161E22" stroke="#263238" stroke-linecap="round" stroke-linejoin="round"/>
<path d="M182.143 79.3293H85.3151C84.9608 79.3298 84.6196 79.2127 84.3614 79.0019C84.1032 78.7911 83.9476 78.5025 83.9263 78.1953L78.6627 23.2453C78.639 23.0752 78.6573 22.9026 78.7164 22.7391C78.7755 22.5756 78.8741 22.4249 79.0055 22.2971C79.1369 22.1692 79.2981 22.0672 79.4785 21.9977C79.6589 21.9282 79.8542 21.893 80.0515 21.8942H187.421C187.618 21.893 187.814 21.9282 187.994 21.9977C188.174 22.0672 188.336 22.1692 188.467 22.2971C188.598 22.4249 188.697 22.5756 188.756 22.7391C188.815 22.9026 188.833 23.0752 188.81 23.2453L183.546 78.1953C183.525 78.5046 183.367 78.795 183.106 79.0061C182.845 79.2172 182.5 79.3329 182.143 79.3293Z" fill="#161E22" stroke="#263238" stroke-linecap="round" stroke-linejoin="round"/>
<path d="M237.377 8.6363C238.862 7.62986 239.906 6.21225 240.335 4.6191C240.647 3.42427 240.614 2.18089 240.238 1" stroke="#6C7D85" stroke-linecap="round" stroke-linejoin="round"/>
<path d="M226.294 51.6553C226.294 51.6553 235.53 46.8298 232.516 41.3167C229.502 35.8036 219.308 32.1483 219.308 23.559C219.308 16.1519 228.377 13.4135 234.294 10.4458" stroke="#6C7D85" stroke-linecap="round" stroke-linejoin="round"/>
<path d="M234.821 51.4985C234.821 51.4985 239.974 48.5188 239.974 43.7899C239.974 40.6171 236.071 38.5421 230.919 33.4392" stroke="#6C7D85" stroke-linecap="round" stroke-linejoin="round"/>
<path d="M228.072 30.351C228.072 30.351 224.696 28.0468 227.183 23.7159" stroke="#6C7D85" stroke-linecap="round" stroke-linejoin="round"/>
<path fill-rule="evenodd" clip-rule="evenodd" d="M142.176 46.731C146.552 47.816 149.407 49.5656 149.407 51.4117C149.407 53.2521 146.567 55.0017 142.218 56.0867C143.235 59.688 142.793 62.5566 140.823 63.4769C140.36 63.6927 139.827 63.795 139.238 63.795C137.309 63.795 134.784 62.693 132.231 60.773C129.679 62.7043 127.154 63.8177 125.225 63.8177C124.636 63.8177 124.103 63.7154 123.647 63.4996C121.67 62.5794 121.221 59.7051 122.231 56.0923C117.854 55.0074 115 53.2578 115 51.4117C115 49.5712 117.84 47.8274 122.203 46.7367C121.186 43.1353 121.627 40.2667 123.598 39.3465C124.061 39.1306 124.594 39.0284 125.183 39.0284V39.0227C127.112 39.0227 129.637 40.1247 132.189 42.0447C134.742 40.1134 137.267 39 139.196 39V39.0057C139.775 39.0065 140.306 39.1088 140.76 39.3238C142.737 40.244 143.186 43.1183 142.176 46.731ZM139.189 40.2667C137.73 40.2698 135.587 41.2124 133.305 42.9308C134.293 43.7659 135.275 44.7202 136.222 45.771C137.8 45.9074 139.301 46.1175 140.675 46.3902C140.83 45.8165 140.956 45.2541 141.033 44.7202C141.356 42.5503 140.942 40.8632 139.988 40.4201C139.771 40.3235 139.511 40.2724 139.189 40.2724V40.2667ZM131.074 42.9365C128.788 41.2267 126.635 40.2895 125.183 40.2895V40.2951C124.861 40.2951 124.587 40.3406 124.377 40.4428C123.43 40.8916 123.023 42.5787 123.353 44.7486C123.437 45.2768 123.556 45.8278 123.717 46.3959C125.092 46.1175 126.593 45.9074 128.178 45.771C129.111 44.7202 130.092 43.7715 131.074 42.9365ZM139.329 49.8666C139.694 49.1111 140.016 48.3556 140.276 47.6229C139.357 47.4411 138.396 47.2934 137.4 47.1741C137.744 47.6058 138.088 48.0489 138.41 48.5033C138.74 48.9578 139.041 49.4122 139.329 49.8666ZM135.373 55.8424C135.956 55.1664 136.517 54.4393 137.064 53.6725C137.59 52.9284 138.074 52.1672 138.515 51.406C138.074 50.6448 137.59 49.8893 137.057 49.1452C136.51 48.384 135.941 47.6626 135.359 46.9867C134.321 46.9185 133.262 46.8787 132.203 46.8787C131.137 46.8787 130.078 46.9185 129.033 46.9923C128.451 47.6683 127.89 48.3954 127.343 49.1622C126.817 49.9064 126.326 50.6676 125.892 51.4287C126.333 52.1899 126.817 52.9454 127.35 53.6895C127.897 54.4507 128.465 55.1721 129.047 55.8481C130.085 55.9162 131.144 55.956 132.203 55.956C133.269 55.956 134.328 55.9162 135.373 55.8424ZM140.297 55.1948C140.03 54.4564 139.708 53.6952 139.329 52.934C139.041 53.3885 138.74 53.8486 138.417 54.303C138.095 54.7631 137.751 55.2119 137.407 55.6493C138.41 55.53 139.378 55.3766 140.297 55.1948ZM130.268 57.1773C130.913 57.8419 131.565 58.4497 132.217 58.995C132.863 58.4497 133.515 57.8419 134.146 57.1773C133.508 57.2057 132.856 57.2171 132.196 57.2171C131.544 57.2171 130.899 57.2 130.268 57.1773ZM124.124 55.2005C125.043 55.3823 126.004 55.53 127 55.6493C126.656 55.2176 126.319 54.7745 125.99 54.3201C125.66 53.8656 125.359 53.4112 125.071 52.9568C124.706 53.7123 124.384 54.4677 124.124 55.2005ZM134.132 45.6461C133.487 44.9815 132.835 44.3737 132.182 43.8283C131.537 44.3737 130.885 44.9815 130.254 45.6461C130.892 45.6177 131.544 45.6063 132.203 45.6063C132.856 45.6063 133.501 45.6234 134.132 45.6461ZM125.983 48.5204C126.305 48.0602 126.649 47.6115 126.993 47.1741C125.99 47.2934 125.022 47.4468 124.103 47.6229C124.37 48.3613 124.692 49.1225 125.071 49.8837C125.359 49.4292 125.66 48.9748 125.983 48.5204ZM116.557 51.4117C116.557 52.3035 118.163 53.4282 120.646 54.286C121.256 54.4961 121.915 54.6893 122.609 54.8654C123.002 53.7577 123.521 52.6046 124.166 51.423C123.514 50.2358 122.988 49.077 122.588 47.9637C121.908 48.1398 121.249 48.3272 120.646 48.5374C118.163 49.3895 116.557 50.5199 116.557 51.4117ZM123.374 58.1032C123.051 60.2731 123.465 61.9602 124.419 62.4033C124.629 62.4998 124.896 62.551 125.211 62.5566C126.67 62.5566 128.816 61.6137 131.102 59.8925C130.113 59.0575 129.132 58.1032 128.185 57.0523C126.607 56.916 125.106 56.7058 123.731 56.4332C123.577 57.0069 123.451 57.5692 123.374 58.1032ZM140.03 62.3806C140.977 61.9318 141.384 60.2447 141.054 58.0748C140.977 57.5465 140.851 56.9955 140.689 56.4218C139.315 56.7001 137.814 56.9103 136.229 57.0466C135.296 58.0975 134.314 59.0462 133.333 59.8812C135.619 61.591 137.772 62.5282 139.224 62.5282C139.546 62.5282 139.82 62.4828 140.03 62.3806ZM141.812 54.8597C142.492 54.6836 143.151 54.4961 143.754 54.286C146.237 53.4339 147.843 52.3035 147.85 51.4117C147.85 50.5199 146.244 49.3951 143.761 48.5374C143.144 48.3272 142.485 48.1341 141.791 47.958C141.398 49.0657 140.879 50.2188 140.234 51.4003C140.886 52.5875 141.412 53.7463 141.812 54.8597ZM135.401 51.4119C135.401 52.8456 133.967 54.0078 132.196 54.0078C130.426 54.0078 128.991 52.8456 128.991 51.4119C128.991 49.9782 130.426 48.8159 132.196 48.8159C133.967 48.8159 135.401 49.9782 135.401 51.4119Z" fill="#61DCFB"/>
</svg>
