<svg width="250" height="220" viewBox="0 0 250 220" fill="none" xmlns="http://www.w3.org/2000/svg">
<path fill-rule="evenodd" clip-rule="evenodd" d="M197.462 68.5328C229.26 78.1506 250 93.6599 250 110.025C250 126.34 229.362 141.849 197.768 151.467C205.157 183.392 201.947 208.821 187.627 216.979C184.264 218.892 180.391 219.799 176.111 219.799C162.097 219.799 143.753 210.03 125.204 193.01C106.655 210.13 88.3102 220 74.2968 220C70.0163 220 66.1435 219.094 62.8312 217.18C48.4611 209.023 45.1998 183.543 52.5377 151.517C20.7399 141.9 0 126.39 0 110.025C0 93.7102 20.638 78.2513 52.3339 68.5832C44.945 36.6583 48.1553 11.2291 62.4745 3.07164C65.8377 1.15816 69.7106 0.251774 73.991 0.251774V0.20142C88.0045 0.20142 106.349 9.97025 124.898 26.9902C143.447 9.86954 161.792 0 175.805 0V0.0503979C180.015 0.057656 183.87 0.96443 187.169 2.87022C201.539 11.0277 204.8 36.5072 197.462 68.5328ZM175.754 11.2292C165.156 11.2559 149.586 19.6124 133 34.8455C140.186 42.2476 147.32 50.7072 154.199 60.0229C165.664 61.2314 176.57 63.0945 186.557 65.5116C187.678 60.4257 188.596 55.4406 189.156 50.7072C191.5 31.4717 188.494 16.5164 181.563 12.5887C179.984 11.7327 178.098 11.2795 175.754 11.2795V11.2292ZM116.796 34.8959C100.183 19.7391 84.5393 11.4305 73.991 11.4305V11.4809C71.647 11.4809 69.6596 11.8837 68.1309 12.7901C61.2515 16.7681 58.296 31.7235 60.691 50.959C61.3025 55.642 62.1688 60.5264 63.3408 65.5619C73.3286 63.0945 84.2336 61.2314 95.7501 60.0229C102.528 50.7072 109.662 42.298 116.796 34.8959ZM176.773 96.3287C179.423 89.6315 181.767 82.9343 183.653 76.4385C176.977 74.8272 169.996 73.518 162.76 72.4605C165.257 76.2875 167.754 80.2151 170.098 84.2435C172.493 88.2719 174.684 92.3003 176.773 96.3287ZM148.033 149.302C152.263 143.31 156.339 136.864 160.314 130.066C164.136 123.47 167.652 116.722 170.862 109.975C167.652 103.227 164.136 96.5301 160.263 89.9336C156.288 83.1861 152.161 76.791 147.931 70.7988C140.389 70.1945 132.695 69.8421 125 69.8421C117.254 69.8421 109.56 70.1945 101.967 70.8492C97.7375 76.8414 93.6608 83.2868 89.6861 90.0847C85.8643 96.6812 82.2972 103.429 79.1378 110.176C82.3482 116.924 85.8643 123.621 89.7371 130.217C93.7118 136.965 97.8394 143.36 102.069 149.352C109.611 149.956 117.305 150.309 125 150.309C132.746 150.309 140.44 149.956 148.033 149.302ZM183.806 143.561C181.869 137.015 179.525 130.268 176.773 123.52C174.684 127.549 172.493 131.627 170.149 135.656C167.805 139.734 165.308 143.713 162.811 147.59C170.098 146.532 177.13 145.173 183.806 143.561ZM110.936 161.135C115.624 167.027 120.363 172.415 125.102 177.249C129.79 172.415 134.529 167.027 139.115 161.135C134.478 161.387 129.739 161.488 124.949 161.488C120.21 161.488 115.522 161.337 110.936 161.135ZM66.2964 143.612C72.9719 145.223 79.9531 146.532 87.1892 147.59C84.6922 143.763 82.2462 139.835 79.8512 135.807C77.4562 131.778 75.265 127.75 73.1757 123.722C70.5259 130.419 68.1818 137.116 66.2964 143.612ZM139.013 58.9151C134.325 53.0236 129.586 47.6356 124.847 42.8016C120.159 47.6356 115.42 53.0236 110.834 58.9151C115.471 58.6633 120.21 58.5626 125 58.5626C129.739 58.5626 134.427 58.7137 139.013 58.9151ZM79.8002 84.3946C82.1443 80.3159 84.6413 76.3378 87.1382 72.4605C79.8512 73.518 72.819 74.8775 66.1435 76.4385C68.0799 82.9847 70.424 89.7322 73.1757 96.4797C75.265 92.4514 77.4562 88.423 79.8002 84.3946ZM11.3127 110.025C11.3127 117.931 22.9821 127.901 41.0212 135.505C45.4546 137.368 50.2446 139.08 55.2895 140.641C58.1431 130.822 61.914 120.6 66.6021 110.126C61.863 99.6017 58.0412 89.3294 55.1366 79.4598C50.1936 81.0208 45.4036 82.6825 41.0212 84.5456C22.9821 92.0989 11.3127 102.119 11.3127 110.025ZM60.8439 169.343C58.4998 188.579 61.5063 203.534 68.4366 207.462C69.9654 208.318 71.9017 208.771 74.1949 208.821C84.7941 208.821 100.387 200.462 117 185.205C109.815 177.803 102.68 169.343 95.8011 160.027C84.3355 158.819 73.4305 156.956 63.4427 154.539C62.3217 159.625 61.4044 164.61 60.8439 169.343ZM181.869 207.26C188.748 203.282 191.704 188.327 189.309 169.091C188.748 164.408 187.831 159.524 186.659 154.438C176.671 156.905 165.766 158.769 154.25 159.977C147.473 169.293 140.338 177.702 133.204 185.104C149.817 200.261 165.461 208.569 176.009 208.569C178.353 208.569 180.34 208.167 181.869 207.26ZM194.812 140.591C199.755 139.03 204.545 137.368 208.928 135.505C226.967 127.951 238.636 117.931 238.687 110.025C238.687 102.119 227.018 92.1492 208.979 84.5456C204.494 82.6825 199.704 80.9705 194.66 79.4095C191.806 89.2286 188.035 99.4507 183.347 109.924C188.086 120.449 191.908 130.721 194.812 140.591ZM148.238 110.027C148.238 122.736 137.811 133.039 124.95 133.039C112.088 133.039 101.662 122.736 101.662 110.027C101.662 97.3175 112.088 87.0146 124.95 87.0146C137.811 87.0146 148.238 97.3175 148.238 110.027Z" fill="#61DCFB"/>
</svg>
